%TF.GenerationSoftware,Altium Limited,Altium Designer,25.8.1 (18)*%
G04 Layer_Physical_Order=4*
G04 Layer_Color=16711680*
%FSLAX45Y45*%
%MOMM*%
%TF.SameCoordinates,0B6E472D-4EE4-4538-A8AE-326EDE427783*%
%TF.FilePolarity,Positive*%
%TF.FileFunction,Copper,L4,Bot,Signal*%
%TF.Part,Single*%
G01*
G75*
%TA.AperFunction,Conductor*%
%ADD39C,0.30000*%
%ADD42C,0.25000*%
%TA.AperFunction,ViaPad*%
%ADD45C,1.52400*%
%TA.AperFunction,ComponentPad*%
%ADD46C,0.99100*%
%TA.AperFunction,ViaPad*%
%ADD47C,0.80000*%
%ADD48C,0.55100*%
%ADD49C,0.60000*%
%ADD50C,0.70000*%
D39*
X9797204Y6998218D02*
X9994644Y7195658D01*
X9732530Y6950052D02*
X9740648D01*
X9788815Y6998218D01*
X9797204D01*
X9994644Y7567426D02*
X10020000Y7592782D01*
X9994644Y7195658D02*
Y7567426D01*
X10020000Y7592782D02*
Y7600000D01*
X9745740Y7695740D02*
Y7737622D01*
X9740000Y7690000D02*
X9745740Y7695740D01*
Y7737622D02*
X9786904Y7778787D01*
X9818787D01*
X9905757Y7865757D01*
Y7996288D01*
D42*
X11164312Y8166277D02*
Y8219029D01*
X11130641Y8314925D02*
X11135916Y8309649D01*
Y8247425D02*
Y8309649D01*
Y8247425D02*
X11164312Y8219029D01*
X9801488Y7469876D02*
X10654428Y8322816D01*
X10985433D01*
X11137393Y8139358D02*
X11164312Y8166277D01*
X11137393Y8035430D02*
Y8139358D01*
X10696849Y6880101D02*
X10760159Y6943411D01*
X10681154Y6880101D02*
X10696849D01*
X10611147Y6810094D02*
X10681154Y6880101D01*
X10760159Y6943411D02*
Y7586675D01*
X10793484Y7620000D01*
X9912231Y7996288D02*
X10217474D01*
X9905757Y8002762D02*
X9912231Y7996288D01*
X10217474D02*
X10307475Y8086289D01*
X9801488Y7187180D02*
Y7469876D01*
X11160000Y7808631D02*
Y8012823D01*
X11137393Y8035430D02*
X11160000Y8012823D01*
X11061358Y7709989D02*
X11160000Y7808631D01*
X10883473Y7709989D02*
X11061358D01*
X10793484Y7620000D02*
X10883473Y7709989D01*
X10020000Y7600000D02*
X10029471D01*
X10049471Y7620000D01*
X10793484D01*
X10905839D01*
X10906324Y7620485D01*
X9920058Y8196656D02*
X10029836D01*
X9366327Y8424169D02*
Y8427099D01*
X9859214Y8257500D02*
X9920058Y8196656D01*
X9366327Y8424169D02*
X9532996Y8257500D01*
X9859214D01*
D45*
X9160000Y6040000D02*
D03*
X12000000Y8400000D02*
D03*
Y6100000D02*
D03*
X9200000Y8400000D02*
D03*
D46*
X11336174Y8100841D02*
D03*
X10809082Y8182740D02*
D03*
X10811813Y8013423D02*
D03*
D47*
X9555842Y6249948D02*
D03*
X10705842Y6499948D02*
D03*
X10455842Y7899948D02*
D03*
X10505842Y8049948D02*
D03*
X10500000Y8300000D02*
D03*
X10455842Y8449948D02*
D03*
X10055842Y8399948D02*
D03*
X12105842Y8249948D02*
D03*
Y8099948D02*
D03*
X11905842Y8249948D02*
D03*
Y8099948D02*
D03*
X11705842Y8449948D02*
D03*
Y8249948D02*
D03*
Y8099948D02*
D03*
X12105842Y7949948D02*
D03*
X11905842D02*
D03*
X11705842D02*
D03*
X11483195Y7485328D02*
D03*
X11479237Y7659473D02*
D03*
X11305842Y7649948D02*
D03*
Y7499948D02*
D03*
X11105842D02*
D03*
X12105842Y6249948D02*
D03*
Y6799948D02*
D03*
X11955842Y6699948D02*
D03*
X11992119Y6516143D02*
D03*
X12105842Y6599948D02*
D03*
X12055842Y6399948D02*
D03*
X11955842Y6299948D02*
D03*
X11855842Y6149948D02*
D03*
Y5999948D02*
D03*
X11705842D02*
D03*
X10755842Y6299948D02*
D03*
X10605842D02*
D03*
X10755842Y6049948D02*
D03*
X10605842D02*
D03*
X9555842D02*
D03*
X9355842D02*
D03*
X9255842Y6849948D02*
D03*
Y6999948D02*
D03*
Y7199948D02*
D03*
Y7399948D02*
D03*
X9105842Y6749948D02*
D03*
Y6899948D02*
D03*
Y7099948D02*
D03*
X9098831Y7301166D02*
D03*
X9089910Y7637180D02*
D03*
X9105842Y7799948D02*
D03*
X9100000Y7500000D02*
D03*
D48*
X10120000Y7385000D02*
D03*
Y7055000D02*
D03*
X10230000D02*
D03*
Y7165000D02*
D03*
X10120000D02*
D03*
Y7275000D02*
D03*
X10340000D02*
D03*
X10230000D02*
D03*
X10340000Y7055000D02*
D03*
X10450000D02*
D03*
X10560000Y7165000D02*
D03*
X10340000D02*
D03*
X10450000Y7275000D02*
D03*
Y7165000D02*
D03*
X10560000Y7275000D02*
D03*
X10120000Y7495000D02*
D03*
X10340000Y7385000D02*
D03*
X10560000D02*
D03*
X10450000D02*
D03*
X10230000D02*
D03*
Y7495000D02*
D03*
X10450000D02*
D03*
X10340000D02*
D03*
X10560000D02*
D03*
Y7055000D02*
D03*
X9510000Y7990000D02*
D03*
X9400000D02*
D03*
Y8100000D02*
D03*
X9510000D02*
D03*
D49*
X10893229Y6849212D02*
D03*
X10327689Y6601356D02*
D03*
X10093041Y7930073D02*
D03*
X10612225Y8483658D02*
D03*
X9729240Y7055873D02*
D03*
X10564079Y6538466D02*
D03*
X9390000Y7570000D02*
D03*
X9566668Y7417818D02*
D03*
X9510000Y7550000D02*
D03*
X9717257Y6733769D02*
D03*
X9101155Y8174642D02*
D03*
X9925098Y8123856D02*
D03*
X9760000Y8350000D02*
D03*
X11694087Y6601720D02*
D03*
X11428788Y6904230D02*
D03*
X11560936Y6764960D02*
D03*
X11611517Y6865532D02*
D03*
X10904524Y7525056D02*
D03*
X11575380Y7525934D02*
D03*
X11130641Y8314925D02*
D03*
X10611147Y6810094D02*
D03*
X9732530Y6950052D02*
D03*
X10307475Y8086289D02*
D03*
X10020000Y7600000D02*
D03*
X9740000Y7690000D02*
D03*
X9905757Y7996288D02*
D03*
X10906324Y7620485D02*
D03*
D50*
X10985433Y8322816D02*
D03*
X10029836Y8196656D02*
D03*
X9366327Y8427099D02*
D03*
X9801488Y7187180D02*
D03*
%TF.MD5,3ce08b1efb9095a8f0fbb0bf40121608*%
M02*
