%TF.GenerationSoftware,Altium Limited,Altium Designer,25.8.1 (18)*%
G04 Layer_Color=8421504*
%FSLAX45Y45*%
%MOMM*%
%TF.SameCoordinates,0B6E472D-4EE4-4538-A8AE-326EDE427783*%
%TF.FilePolarity,Positive*%
%TF.FileFunction,Paste,Top*%
%TF.Part,Single*%
G01*
G75*
%TA.AperFunction,SMDPad,CuDef*%
%ADD10O,0.80000X0.25000*%
%ADD11O,0.25000X0.80000*%
%ADD12R,5.60000X5.60000*%
G04:AMPARAMS|DCode=13|XSize=0.55mm|YSize=0.5mm|CornerRadius=0.0625mm|HoleSize=0mm|Usage=FLASHONLY|Rotation=90.000|XOffset=0mm|YOffset=0mm|HoleType=Round|Shape=RoundedRectangle|*
%AMROUNDEDRECTD13*
21,1,0.55000,0.37500,0,0,90.0*
21,1,0.42500,0.50000,0,0,90.0*
1,1,0.12500,0.18750,0.21250*
1,1,0.12500,0.18750,-0.21250*
1,1,0.12500,-0.18750,-0.21250*
1,1,0.12500,-0.18750,0.21250*
%
%ADD13ROUNDEDRECTD13*%
G04:AMPARAMS|DCode=14|XSize=0.8mm|YSize=0.9mm|CornerRadius=0.08mm|HoleSize=0mm|Usage=FLASHONLY|Rotation=90.000|XOffset=0mm|YOffset=0mm|HoleType=Round|Shape=RoundedRectangle|*
%AMROUNDEDRECTD14*
21,1,0.80000,0.74000,0,0,90.0*
21,1,0.64000,0.90000,0,0,90.0*
1,1,0.16000,0.37000,0.32000*
1,1,0.16000,0.37000,-0.32000*
1,1,0.16000,-0.37000,-0.32000*
1,1,0.16000,-0.37000,0.32000*
%
%ADD14ROUNDEDRECTD14*%
%ADD15R,1.05000X1.05000*%
%ADD16R,0.54000X0.58000*%
G04:AMPARAMS|DCode=17|XSize=0.76mm|YSize=0.6604mm|CornerRadius=0.08255mm|HoleSize=0mm|Usage=FLASHONLY|Rotation=180.000|XOffset=0mm|YOffset=0mm|HoleType=Round|Shape=RoundedRectangle|*
%AMROUNDEDRECTD17*
21,1,0.76000,0.49530,0,0,180.0*
21,1,0.59490,0.66040,0,0,180.0*
1,1,0.16510,-0.29745,0.24765*
1,1,0.16510,0.29745,0.24765*
1,1,0.16510,0.29745,-0.24765*
1,1,0.16510,-0.29745,-0.24765*
%
%ADD17ROUNDEDRECTD17*%
%ADD18R,0.58000X0.54000*%
%ADD19R,2.70000X2.60000*%
%ADD20R,0.80000X0.35000*%
%ADD21R,0.35000X0.85000*%
G04:AMPARAMS|DCode=22|XSize=0.6mm|YSize=1.55mm|CornerRadius=0.075mm|HoleSize=0mm|Usage=FLASHONLY|Rotation=180.000|XOffset=0mm|YOffset=0mm|HoleType=Round|Shape=RoundedRectangle|*
%AMROUNDEDRECTD22*
21,1,0.60000,1.40000,0,0,180.0*
21,1,0.45000,1.55000,0,0,180.0*
1,1,0.15000,-0.22500,0.70000*
1,1,0.15000,0.22500,0.70000*
1,1,0.15000,0.22500,-0.70000*
1,1,0.15000,-0.22500,-0.70000*
%
%ADD22ROUNDEDRECTD22*%
G04:AMPARAMS|DCode=23|XSize=0.76mm|YSize=0.6604mm|CornerRadius=0.08255mm|HoleSize=0mm|Usage=FLASHONLY|Rotation=270.000|XOffset=0mm|YOffset=0mm|HoleType=Round|Shape=RoundedRectangle|*
%AMROUNDEDRECTD23*
21,1,0.76000,0.49530,0,0,270.0*
21,1,0.59490,0.66040,0,0,270.0*
1,1,0.16510,-0.24765,-0.29745*
1,1,0.16510,-0.24765,0.29745*
1,1,0.16510,0.24765,0.29745*
1,1,0.16510,0.24765,-0.29745*
%
%ADD23ROUNDEDRECTD23*%
%TA.AperFunction,ConnectorPad*%
%ADD24R,0.87213X1.00429*%
%TA.AperFunction,SMDPad,CuDef*%
G04:AMPARAMS|DCode=25|XSize=0.55mm|YSize=0.5mm|CornerRadius=0.0625mm|HoleSize=0mm|Usage=FLASHONLY|Rotation=0.000|XOffset=0mm|YOffset=0mm|HoleType=Round|Shape=RoundedRectangle|*
%AMROUNDEDRECTD25*
21,1,0.55000,0.37500,0,0,0.0*
21,1,0.42500,0.50000,0,0,0.0*
1,1,0.12500,0.21250,-0.18750*
1,1,0.12500,-0.21250,-0.18750*
1,1,0.12500,-0.21250,0.18750*
1,1,0.12500,0.21250,0.18750*
%
%ADD25ROUNDEDRECTD25*%
%TA.AperFunction,ConnectorPad*%
%ADD26R,1.38000X0.45000*%
%TA.AperFunction,SMDPad,CuDef*%
%ADD28R,0.70000X0.65000*%
%ADD29R,0.55000X0.65000*%
%TA.AperFunction,ConnectorPad*%
G04:AMPARAMS|DCode=30|XSize=1.00429mm|YSize=3.18213mm|CornerRadius=0.43687mm|HoleSize=0mm|Usage=FLASHONLY|Rotation=270.000|XOffset=0mm|YOffset=0mm|HoleType=Round|Shape=RoundedRectangle|*
%AMROUNDEDRECTD30*
21,1,1.00429,2.30840,0,0,270.0*
21,1,0.13056,3.18213,0,0,270.0*
1,1,0.87373,-1.15420,-0.06528*
1,1,0.87373,-1.15420,0.06528*
1,1,0.87373,1.15420,0.06528*
1,1,0.87373,1.15420,-0.06528*
%
%ADD30ROUNDEDRECTD30*%
%TA.AperFunction,SMDPad,CuDef*%
%ADD31R,0.80000X0.80000*%
%TA.AperFunction,ConnectorPad*%
G04:AMPARAMS|DCode=32|XSize=1.00429mm|YSize=0.87213mm|CornerRadius=0.43606mm|HoleSize=0mm|Usage=FLASHONLY|Rotation=270.000|XOffset=0mm|YOffset=0mm|HoleType=Round|Shape=RoundedRectangle|*
%AMROUNDEDRECTD32*
21,1,1.00429,0.00000,0,0,270.0*
21,1,0.13216,0.87213,0,0,270.0*
1,1,0.87213,0.00000,-0.06608*
1,1,0.87213,0.00000,0.06608*
1,1,0.87213,0.00000,0.06608*
1,1,0.87213,0.00000,-0.06608*
%
%ADD32ROUNDEDRECTD32*%
%TA.AperFunction,SMDPad,CuDef*%
%ADD33R,0.95000X0.70000*%
%TA.AperFunction,ConnectorPad*%
%ADD34R,1.55000X1.42500*%
%ADD35R,1.90000X1.00000*%
%ADD36R,1.90000X1.80000*%
%ADD37R,1.30000X1.65000*%
%TA.AperFunction,SMDPad,CuDef*%
G04:AMPARAMS|DCode=38|XSize=1.2mm|YSize=1.8mm|CornerRadius=0.09mm|HoleSize=0mm|Usage=FLASHONLY|Rotation=0.000|XOffset=0mm|YOffset=0mm|HoleType=Round|Shape=RoundedRectangle|*
%AMROUNDEDRECTD38*
21,1,1.20000,1.62000,0,0,0.0*
21,1,1.02000,1.80000,0,0,0.0*
1,1,0.18000,0.51000,-0.81000*
1,1,0.18000,-0.51000,-0.81000*
1,1,0.18000,-0.51000,0.81000*
1,1,0.18000,0.51000,0.81000*
%
%ADD38ROUNDEDRECTD38*%
D10*
X10000000Y7500000D02*
D03*
Y7450000D02*
D03*
Y7400000D02*
D03*
Y7300000D02*
D03*
Y7100000D02*
D03*
Y7050000D02*
D03*
Y7000000D02*
D03*
X10680000D02*
D03*
Y7050000D02*
D03*
Y7100000D02*
D03*
Y7150000D02*
D03*
Y7200000D02*
D03*
Y7250000D02*
D03*
Y7300000D02*
D03*
Y7450000D02*
D03*
X10000000Y7250000D02*
D03*
X10680000Y7350000D02*
D03*
Y7400000D02*
D03*
X10000000Y7150000D02*
D03*
Y7550000D02*
D03*
X10680000D02*
D03*
X10000000Y7350000D02*
D03*
Y7200000D02*
D03*
X10680000Y7500000D02*
D03*
D11*
X10065000Y6935000D02*
D03*
X10315000D02*
D03*
X10365000D02*
D03*
X10415000D02*
D03*
X10465000D02*
D03*
X10515000D02*
D03*
X10565000Y7615000D02*
D03*
X10465000D02*
D03*
X10415000D02*
D03*
X10265000D02*
D03*
X10165000D02*
D03*
Y6935000D02*
D03*
X10115000D02*
D03*
X10265000D02*
D03*
X10215000D02*
D03*
X10615000Y7615000D02*
D03*
X10515000D02*
D03*
X10215000D02*
D03*
X10315000D02*
D03*
X10615000Y6935000D02*
D03*
X10065000Y7615000D02*
D03*
X10365000D02*
D03*
X10565000Y6935000D02*
D03*
X10115000Y7615000D02*
D03*
D12*
X10340000Y7275000D02*
D03*
D13*
X10945700Y6990213D02*
D03*
X10936200Y7110199D02*
D03*
X10815660Y6990213D02*
D03*
X10021000Y8058198D02*
D03*
X10835152Y7110199D02*
D03*
X11075000Y8500000D02*
D03*
X10955000D02*
D03*
X10121000Y8058198D02*
D03*
D14*
X9453281Y6969683D02*
D03*
X9593281Y6859683D02*
D03*
X9453281D02*
D03*
X9593281Y6979665D02*
D03*
D15*
X9482500Y7260000D02*
D03*
X9577293Y6714052D02*
D03*
X9617500Y7260000D02*
D03*
X9412293Y6714052D02*
D03*
D16*
X9837855Y7065497D02*
D03*
X9826493Y7459047D02*
D03*
X9804004Y8153998D02*
D03*
X10800000Y7541000D02*
D03*
X9837855Y6987497D02*
D03*
X9826493Y7537046D02*
D03*
X9804004Y8075998D02*
D03*
X10800000Y7619000D02*
D03*
D17*
X9684847Y7428046D02*
D03*
X11400000Y7010000D02*
D03*
X11560000Y6990000D02*
D03*
X9684847Y7568047D02*
D03*
X11400000Y7150000D02*
D03*
X11560000Y7130000D02*
D03*
D18*
X9586057Y7673038D02*
D03*
X9384371Y7698057D02*
D03*
X10100000Y7800000D02*
D03*
X9644015Y8397311D02*
D03*
X10716836Y6787673D02*
D03*
X10722000Y8500000D02*
D03*
X9306371Y7698057D02*
D03*
X10022000Y7800000D02*
D03*
X10794836Y6787673D02*
D03*
X10800000Y8500000D02*
D03*
X9566015Y8397311D02*
D03*
X9508057Y7673038D02*
D03*
D19*
X9455000Y8045000D02*
D03*
D20*
X9226300Y8160000D02*
D03*
X9685000Y8170000D02*
D03*
Y7920000D02*
D03*
Y7970000D02*
D03*
Y8020000D02*
D03*
Y8070000D02*
D03*
Y8120000D02*
D03*
X9226276Y7911677D02*
D03*
X9226980Y7960973D02*
D03*
Y8007452D02*
D03*
X9227154Y8056828D02*
D03*
X9227224Y8110293D02*
D03*
D21*
X9430000Y7815900D02*
D03*
X9530000D02*
D03*
X9380000D02*
D03*
X9326275Y7815902D02*
D03*
X9330000Y8272500D02*
D03*
X9580000D02*
D03*
X9530000D02*
D03*
X9480000D02*
D03*
X9430000D02*
D03*
X9380000D02*
D03*
X9580000Y7815900D02*
D03*
X9480000D02*
D03*
D22*
X10350000Y6445000D02*
D03*
X9850000D02*
D03*
X10250000D02*
D03*
X10150000D02*
D03*
X10050000D02*
D03*
X9950000D02*
D03*
D23*
X10557631Y6686738D02*
D03*
X11258185Y6921183D02*
D03*
X11444117Y6773296D02*
D03*
X11304117D02*
D03*
X11118185Y6921183D02*
D03*
X10417630Y6686738D02*
D03*
D24*
X11499500Y6629500D02*
D03*
D25*
X11797179Y6553669D02*
D03*
Y6463669D02*
D03*
D26*
X11753270Y7537548D02*
D03*
X11751402Y7471845D02*
D03*
X11753270Y7407548D02*
D03*
Y7342548D02*
D03*
Y7277548D02*
D03*
D28*
X9526580Y7107766D02*
D03*
X9621580D02*
D03*
D29*
X10183858Y8199546D02*
D03*
X10313900D02*
D03*
X10235096Y8330870D02*
D03*
X10365066D02*
D03*
D30*
X11270500Y5970500D02*
D03*
D31*
X11711240Y6208749D02*
D03*
Y6358749D02*
D03*
D32*
X11270500Y6629500D02*
D03*
X11041500D02*
D03*
D33*
X11408661Y7277273D02*
D03*
X11573661D02*
D03*
D34*
X11761770Y7656298D02*
D03*
Y7158798D02*
D03*
D35*
X12019270Y7562548D02*
D03*
D36*
Y7292548D02*
D03*
D37*
Y7745048D02*
D03*
Y7070048D02*
D03*
D38*
X9720000Y6057500D02*
D03*
X10480000D02*
D03*
%TF.MD5,53a4187d4ea61191446928bd0d95a8ef*%
M02*
