%TF.GenerationSoftware,Altium Limited,Altium Designer,25.8.1 (18)*%
G04 Layer_Color=16711935*
%FSLAX45Y45*%
%MOMM*%
%TF.SameCoordinates,0B6E472D-4EE4-4538-A8AE-326EDE427783*%
%TF.FilePolarity,Negative*%
%TF.FileFunction,Soldermask,Bot*%
%TF.Part,Single*%
G01*
G75*
%TA.AperFunction,ComponentPad*%
%ADD46C,0.99100*%
%TA.AperFunction,ViaPad*%
%ADD76C,1.72720*%
%ADD77C,1.00320*%
%ADD78C,0.75420*%
%ADD79C,0.80320*%
%ADD80C,0.90320*%
D46*
X11336174Y8100841D02*
D03*
X10809082Y8182740D02*
D03*
X10811813Y8013423D02*
D03*
D76*
X9160000Y6040000D02*
D03*
X12000000Y8400000D02*
D03*
Y6100000D02*
D03*
X9200000Y8400000D02*
D03*
D77*
X9555842Y6249948D02*
D03*
X10705842Y6499948D02*
D03*
X10455842Y7899948D02*
D03*
X10505842Y8049948D02*
D03*
X10500000Y8300000D02*
D03*
X10455842Y8449948D02*
D03*
X10055842Y8399948D02*
D03*
X12105842Y8249948D02*
D03*
Y8099948D02*
D03*
X11905842Y8249948D02*
D03*
Y8099948D02*
D03*
X11705842Y8449948D02*
D03*
Y8249948D02*
D03*
Y8099948D02*
D03*
X12105842Y7949948D02*
D03*
X11905842D02*
D03*
X11705842D02*
D03*
X11483195Y7485328D02*
D03*
X11479237Y7659473D02*
D03*
X11305842Y7649948D02*
D03*
Y7499948D02*
D03*
X11105842D02*
D03*
X12105842Y6249948D02*
D03*
Y6799948D02*
D03*
X11955842Y6699948D02*
D03*
X11992119Y6516143D02*
D03*
X12105842Y6599948D02*
D03*
X12055842Y6399948D02*
D03*
X11955842Y6299948D02*
D03*
X11855842Y6149948D02*
D03*
Y5999948D02*
D03*
X11705842D02*
D03*
X10755842Y6299948D02*
D03*
X10605842D02*
D03*
X10755842Y6049948D02*
D03*
X10605842D02*
D03*
X9555842D02*
D03*
X9355842D02*
D03*
X9255842Y6849948D02*
D03*
Y6999948D02*
D03*
Y7199948D02*
D03*
Y7399948D02*
D03*
X9105842Y6749948D02*
D03*
Y6899948D02*
D03*
Y7099948D02*
D03*
X9098831Y7301166D02*
D03*
X9089910Y7637180D02*
D03*
X9105842Y7799948D02*
D03*
X9100000Y7500000D02*
D03*
D78*
X10120000Y7385000D02*
D03*
Y7055000D02*
D03*
X10230000D02*
D03*
Y7165000D02*
D03*
X10120000D02*
D03*
Y7275000D02*
D03*
X10340000D02*
D03*
X10230000D02*
D03*
X10340000Y7055000D02*
D03*
X10450000D02*
D03*
X10560000Y7165000D02*
D03*
X10340000D02*
D03*
X10450000Y7275000D02*
D03*
Y7165000D02*
D03*
X10560000Y7275000D02*
D03*
X10120000Y7495000D02*
D03*
X10340000Y7385000D02*
D03*
X10560000D02*
D03*
X10450000D02*
D03*
X10230000D02*
D03*
Y7495000D02*
D03*
X10450000D02*
D03*
X10340000D02*
D03*
X10560000D02*
D03*
Y7055000D02*
D03*
X9510000Y7990000D02*
D03*
X9400000D02*
D03*
Y8100000D02*
D03*
X9510000D02*
D03*
D79*
X10893229Y6849212D02*
D03*
X10327689Y6601356D02*
D03*
X10093041Y7930073D02*
D03*
X10612225Y8483658D02*
D03*
X9729240Y7055873D02*
D03*
X10564079Y6538466D02*
D03*
X9390000Y7570000D02*
D03*
X9566668Y7417818D02*
D03*
X9510000Y7550000D02*
D03*
X9717257Y6733769D02*
D03*
X9101155Y8174642D02*
D03*
X9925098Y8123856D02*
D03*
X9760000Y8350000D02*
D03*
X11694087Y6601720D02*
D03*
X11428788Y6904230D02*
D03*
X11560936Y6764960D02*
D03*
X11611517Y6865532D02*
D03*
X10904524Y7525056D02*
D03*
X11575380Y7525934D02*
D03*
X11130641Y8314925D02*
D03*
X10611147Y6810094D02*
D03*
X9732530Y6950052D02*
D03*
X10307475Y8086289D02*
D03*
X10020000Y7600000D02*
D03*
X9740000Y7690000D02*
D03*
X9905757Y7996288D02*
D03*
X10906324Y7620485D02*
D03*
D80*
X10985433Y8322816D02*
D03*
X10029836Y8196656D02*
D03*
X9366327Y8427099D02*
D03*
X9801488Y7187180D02*
D03*
%TF.MD5,aa8ba7f634848963b6edb21e0ded4a50*%
M02*
