%TF.GenerationSoftware,Altium Limited,Altium Designer,25.8.1 (18)*%
G04 Layer_Physical_Order=1*
G04 Layer_Color=255*
%FSLAX45Y45*%
%MOMM*%
%TF.SameCoordinates,0B6E472D-4EE4-4538-A8AE-326EDE427783*%
%TF.FilePolarity,Positive*%
%TF.FileFunction,Copper,L1,Top,Signal*%
%TF.Part,Single*%
G01*
G75*
%TA.AperFunction,SMDPad,CuDef*%
%ADD10O,0.80000X0.25000*%
%ADD11O,0.25000X0.80000*%
%ADD12R,5.60000X5.60000*%
G04:AMPARAMS|DCode=13|XSize=0.55mm|YSize=0.5mm|CornerRadius=0.0625mm|HoleSize=0mm|Usage=FLASHONLY|Rotation=90.000|XOffset=0mm|YOffset=0mm|HoleType=Round|Shape=RoundedRectangle|*
%AMROUNDEDRECTD13*
21,1,0.55000,0.37500,0,0,90.0*
21,1,0.42500,0.50000,0,0,90.0*
1,1,0.12500,0.18750,0.21250*
1,1,0.12500,0.18750,-0.21250*
1,1,0.12500,-0.18750,-0.21250*
1,1,0.12500,-0.18750,0.21250*
%
%ADD13ROUNDEDRECTD13*%
G04:AMPARAMS|DCode=14|XSize=0.8mm|YSize=0.9mm|CornerRadius=0.08mm|HoleSize=0mm|Usage=FLASHONLY|Rotation=90.000|XOffset=0mm|YOffset=0mm|HoleType=Round|Shape=RoundedRectangle|*
%AMROUNDEDRECTD14*
21,1,0.80000,0.74000,0,0,90.0*
21,1,0.64000,0.90000,0,0,90.0*
1,1,0.16000,0.37000,0.32000*
1,1,0.16000,0.37000,-0.32000*
1,1,0.16000,-0.37000,-0.32000*
1,1,0.16000,-0.37000,0.32000*
%
%ADD14ROUNDEDRECTD14*%
%ADD15R,1.05000X1.05000*%
%ADD16R,0.54000X0.58000*%
G04:AMPARAMS|DCode=17|XSize=0.76mm|YSize=0.6604mm|CornerRadius=0.08255mm|HoleSize=0mm|Usage=FLASHONLY|Rotation=180.000|XOffset=0mm|YOffset=0mm|HoleType=Round|Shape=RoundedRectangle|*
%AMROUNDEDRECTD17*
21,1,0.76000,0.49530,0,0,180.0*
21,1,0.59490,0.66040,0,0,180.0*
1,1,0.16510,-0.29745,0.24765*
1,1,0.16510,0.29745,0.24765*
1,1,0.16510,0.29745,-0.24765*
1,1,0.16510,-0.29745,-0.24765*
%
%ADD17ROUNDEDRECTD17*%
%ADD18R,0.58000X0.54000*%
%ADD19R,2.70000X2.60000*%
%ADD20R,0.80000X0.35000*%
%ADD21R,0.35000X0.85000*%
G04:AMPARAMS|DCode=22|XSize=0.6mm|YSize=1.55mm|CornerRadius=0.075mm|HoleSize=0mm|Usage=FLASHONLY|Rotation=180.000|XOffset=0mm|YOffset=0mm|HoleType=Round|Shape=RoundedRectangle|*
%AMROUNDEDRECTD22*
21,1,0.60000,1.40000,0,0,180.0*
21,1,0.45000,1.55000,0,0,180.0*
1,1,0.15000,-0.22500,0.70000*
1,1,0.15000,0.22500,0.70000*
1,1,0.15000,0.22500,-0.70000*
1,1,0.15000,-0.22500,-0.70000*
%
%ADD22ROUNDEDRECTD22*%
G04:AMPARAMS|DCode=23|XSize=0.76mm|YSize=0.6604mm|CornerRadius=0.08255mm|HoleSize=0mm|Usage=FLASHONLY|Rotation=270.000|XOffset=0mm|YOffset=0mm|HoleType=Round|Shape=RoundedRectangle|*
%AMROUNDEDRECTD23*
21,1,0.76000,0.49530,0,0,270.0*
21,1,0.59490,0.66040,0,0,270.0*
1,1,0.16510,-0.24765,-0.29745*
1,1,0.16510,-0.24765,0.29745*
1,1,0.16510,0.24765,0.29745*
1,1,0.16510,0.24765,-0.29745*
%
%ADD23ROUNDEDRECTD23*%
%TA.AperFunction,ConnectorPad*%
%ADD24R,0.87213X1.00429*%
%TA.AperFunction,SMDPad,CuDef*%
G04:AMPARAMS|DCode=25|XSize=0.55mm|YSize=0.5mm|CornerRadius=0.0625mm|HoleSize=0mm|Usage=FLASHONLY|Rotation=0.000|XOffset=0mm|YOffset=0mm|HoleType=Round|Shape=RoundedRectangle|*
%AMROUNDEDRECTD25*
21,1,0.55000,0.37500,0,0,0.0*
21,1,0.42500,0.50000,0,0,0.0*
1,1,0.12500,0.21250,-0.18750*
1,1,0.12500,-0.21250,-0.18750*
1,1,0.12500,-0.21250,0.18750*
1,1,0.12500,0.21250,0.18750*
%
%ADD25ROUNDEDRECTD25*%
%TA.AperFunction,ConnectorPad*%
%ADD26R,1.38000X0.45000*%
%TA.AperFunction,BGAPad,CuDef*%
%ADD27C,0.78700*%
%TA.AperFunction,SMDPad,CuDef*%
%ADD28R,0.70000X0.65000*%
%ADD29R,0.55000X0.65000*%
%TA.AperFunction,ConnectorPad*%
G04:AMPARAMS|DCode=30|XSize=1.00429mm|YSize=3.18213mm|CornerRadius=0.43687mm|HoleSize=0mm|Usage=FLASHONLY|Rotation=270.000|XOffset=0mm|YOffset=0mm|HoleType=Round|Shape=RoundedRectangle|*
%AMROUNDEDRECTD30*
21,1,1.00429,2.30840,0,0,270.0*
21,1,0.13056,3.18213,0,0,270.0*
1,1,0.87373,-1.15420,-0.06528*
1,1,0.87373,-1.15420,0.06528*
1,1,0.87373,1.15420,0.06528*
1,1,0.87373,1.15420,-0.06528*
%
%ADD30ROUNDEDRECTD30*%
%TA.AperFunction,SMDPad,CuDef*%
%ADD31R,0.80000X0.80000*%
%TA.AperFunction,ConnectorPad*%
G04:AMPARAMS|DCode=32|XSize=1.00429mm|YSize=0.87213mm|CornerRadius=0.43606mm|HoleSize=0mm|Usage=FLASHONLY|Rotation=270.000|XOffset=0mm|YOffset=0mm|HoleType=Round|Shape=RoundedRectangle|*
%AMROUNDEDRECTD32*
21,1,1.00429,0.00000,0,0,270.0*
21,1,0.13216,0.87213,0,0,270.0*
1,1,0.87213,0.00000,-0.06608*
1,1,0.87213,0.00000,0.06608*
1,1,0.87213,0.00000,0.06608*
1,1,0.87213,0.00000,-0.06608*
%
%ADD32ROUNDEDRECTD32*%
%TA.AperFunction,SMDPad,CuDef*%
%ADD33R,0.95000X0.70000*%
%TA.AperFunction,ConnectorPad*%
%ADD34R,1.55000X1.42500*%
%ADD35R,1.90000X1.00000*%
%ADD36R,1.90000X1.80000*%
%ADD37R,1.30000X1.65000*%
%TA.AperFunction,SMDPad,CuDef*%
G04:AMPARAMS|DCode=38|XSize=1.2mm|YSize=1.8mm|CornerRadius=0.09mm|HoleSize=0mm|Usage=FLASHONLY|Rotation=0.000|XOffset=0mm|YOffset=0mm|HoleType=Round|Shape=RoundedRectangle|*
%AMROUNDEDRECTD38*
21,1,1.20000,1.62000,0,0,0.0*
21,1,1.02000,1.80000,0,0,0.0*
1,1,0.18000,0.51000,-0.81000*
1,1,0.18000,-0.51000,-0.81000*
1,1,0.18000,-0.51000,0.81000*
1,1,0.18000,0.51000,0.81000*
%
%ADD38ROUNDEDRECTD38*%
%TA.AperFunction,Conductor*%
%ADD39C,0.30000*%
%ADD40C,0.20000*%
%ADD41C,0.26000*%
%ADD42C,0.25000*%
%ADD43C,0.50000*%
%ADD44C,1.00000*%
%TA.AperFunction,ViaPad*%
%ADD45C,1.52400*%
%TA.AperFunction,ComponentPad*%
%ADD46C,0.99100*%
%TA.AperFunction,ViaPad*%
%ADD47C,0.80000*%
%ADD48C,0.55100*%
%ADD49C,0.60000*%
%ADD50C,0.70000*%
G36*
X11480000Y7310000D02*
Y7291969D01*
X11479608Y7290000D01*
Y7139608D01*
X11440000Y7100000D01*
X11280000D01*
X11170000Y6990000D01*
Y6560000D01*
X10980000D01*
X10970000Y6570000D01*
Y6880000D01*
X11070000Y6980000D01*
X11060000Y6990000D01*
Y7280000D01*
X11070000D01*
X11108353Y7318354D01*
X11171329D01*
X11171330Y7318353D01*
X11171574Y7318402D01*
X11471598D01*
X11480000Y7310000D01*
D02*
G37*
G36*
X11664270Y7300048D02*
X11829951D01*
X11830000Y7300000D01*
Y7260000D01*
X11820048Y7250048D01*
X11664270D01*
Y7250000D01*
X11660000D01*
X11630000Y7220000D01*
Y7100000D01*
X11630000D01*
X11610000Y7080000D01*
X11520000D01*
X11500000Y7100000D01*
Y7290000D01*
X11520000Y7310000D01*
X11664270D01*
Y7300048D01*
D02*
G37*
G36*
X11350000Y7050000D02*
X11600000D01*
Y7050000D01*
X11620000Y7030000D01*
Y6920000D01*
X11840000Y6700000D01*
Y6540000D01*
X11810000Y6510000D01*
X11460000D01*
X11400000Y6570000D01*
Y6870000D01*
X11380000Y6890000D01*
X11370000Y6880000D01*
X11230000D01*
X11210000Y6900000D01*
Y6960000D01*
X11340000Y7060000D01*
X11350000Y7050000D01*
D02*
G37*
G36*
X11370000Y6790000D02*
Y6430000D01*
X11540000Y6260000D01*
X11740000D01*
Y6250000D01*
X11770000Y6220000D01*
Y6190000D01*
X11730000Y6150000D01*
X11460000D01*
Y5970000D01*
X11410000Y5920000D01*
X11130000D01*
X11080000Y5970000D01*
Y6260000D01*
X11092214Y6432214D01*
X11180000Y6520000D01*
X11210000D01*
Y6790000D01*
X11220000Y6800000D01*
X11240000Y6830000D01*
X11330000D01*
X11370000Y6790000D01*
D02*
G37*
D10*
X10000000Y7500000D02*
D03*
Y7450000D02*
D03*
Y7400000D02*
D03*
Y7300000D02*
D03*
Y7100000D02*
D03*
Y7050000D02*
D03*
Y7000000D02*
D03*
X10680000D02*
D03*
Y7050000D02*
D03*
Y7100000D02*
D03*
Y7150000D02*
D03*
Y7200000D02*
D03*
Y7250000D02*
D03*
Y7300000D02*
D03*
Y7450000D02*
D03*
X10000000Y7250000D02*
D03*
X10680000Y7350000D02*
D03*
Y7400000D02*
D03*
X10000000Y7150000D02*
D03*
Y7550000D02*
D03*
X10680000D02*
D03*
X10000000Y7350000D02*
D03*
Y7200000D02*
D03*
X10680000Y7500000D02*
D03*
D11*
X10065000Y6935000D02*
D03*
X10315000D02*
D03*
X10365000D02*
D03*
X10415000D02*
D03*
X10465000D02*
D03*
X10515000D02*
D03*
X10565000Y7615000D02*
D03*
X10465000D02*
D03*
X10415000D02*
D03*
X10265000D02*
D03*
X10165000D02*
D03*
Y6935000D02*
D03*
X10115000D02*
D03*
X10265000D02*
D03*
X10215000D02*
D03*
X10615000Y7615000D02*
D03*
X10515000D02*
D03*
X10215000D02*
D03*
X10315000D02*
D03*
X10615000Y6935000D02*
D03*
X10065000Y7615000D02*
D03*
X10365000D02*
D03*
X10565000Y6935000D02*
D03*
X10115000Y7615000D02*
D03*
D12*
X10340000Y7275000D02*
D03*
D13*
X10945700Y6990213D02*
D03*
X10936200Y7110199D02*
D03*
X10815660Y6990213D02*
D03*
X10021000Y8058198D02*
D03*
X10835152Y7110199D02*
D03*
X11075000Y8500000D02*
D03*
X10955000D02*
D03*
X10121000Y8058198D02*
D03*
D14*
X9453281Y6969683D02*
D03*
X9593281Y6859683D02*
D03*
X9453281D02*
D03*
X9593281Y6979665D02*
D03*
D15*
X9482500Y7260000D02*
D03*
X9577293Y6714052D02*
D03*
X9617500Y7260000D02*
D03*
X9412293Y6714052D02*
D03*
D16*
X9837855Y7065497D02*
D03*
X9826493Y7459047D02*
D03*
X9804004Y8153998D02*
D03*
X10800000Y7541000D02*
D03*
X9837855Y6987497D02*
D03*
X9826493Y7537046D02*
D03*
X9804004Y8075998D02*
D03*
X10800000Y7619000D02*
D03*
D17*
X9684847Y7428046D02*
D03*
X11400000Y7010000D02*
D03*
X11560000Y6990000D02*
D03*
X9684847Y7568047D02*
D03*
X11400000Y7150000D02*
D03*
X11560000Y7130000D02*
D03*
D18*
X9586057Y7673038D02*
D03*
X9384371Y7698057D02*
D03*
X10100000Y7800000D02*
D03*
X9644015Y8397311D02*
D03*
X10716836Y6787673D02*
D03*
X10722000Y8500000D02*
D03*
X9306371Y7698057D02*
D03*
X10022000Y7800000D02*
D03*
X10794836Y6787673D02*
D03*
X10800000Y8500000D02*
D03*
X9566015Y8397311D02*
D03*
X9508057Y7673038D02*
D03*
D19*
X9455000Y8045000D02*
D03*
D20*
X9226300Y8160000D02*
D03*
X9685000Y8170000D02*
D03*
Y7920000D02*
D03*
Y7970000D02*
D03*
Y8020000D02*
D03*
Y8070000D02*
D03*
Y8120000D02*
D03*
X9226276Y7911677D02*
D03*
X9226980Y7960973D02*
D03*
Y8007452D02*
D03*
X9227154Y8056828D02*
D03*
X9227224Y8110293D02*
D03*
D21*
X9430000Y7815900D02*
D03*
X9530000D02*
D03*
X9380000D02*
D03*
X9326275Y7815902D02*
D03*
X9330000Y8272500D02*
D03*
X9580000D02*
D03*
X9530000D02*
D03*
X9480000D02*
D03*
X9430000D02*
D03*
X9380000D02*
D03*
X9580000Y7815900D02*
D03*
X9480000D02*
D03*
D22*
X10350000Y6445000D02*
D03*
X9850000D02*
D03*
X10250000D02*
D03*
X10150000D02*
D03*
X10050000D02*
D03*
X9950000D02*
D03*
D23*
X10557631Y6686738D02*
D03*
X11258185Y6921183D02*
D03*
X11444117Y6773296D02*
D03*
X11304117D02*
D03*
X11118185Y6921183D02*
D03*
X10417630Y6686738D02*
D03*
D24*
X11499500Y6629500D02*
D03*
D25*
X11797179Y6553669D02*
D03*
Y6463669D02*
D03*
D26*
X11753270Y7537548D02*
D03*
X11751402Y7471845D02*
D03*
X11753270Y7407548D02*
D03*
Y7342548D02*
D03*
Y7277548D02*
D03*
D27*
X10956552Y8168175D02*
D03*
X11213259Y8167265D02*
D03*
X10956887Y8035179D02*
D03*
X11084905Y8171816D02*
D03*
X11206805Y8035176D02*
D03*
X11082324Y8036595D02*
D03*
D28*
X9526580Y7107766D02*
D03*
X9621580D02*
D03*
D29*
X10183858Y8199546D02*
D03*
X10313900D02*
D03*
X10235096Y8330870D02*
D03*
X10365066D02*
D03*
D30*
X11270500Y5970500D02*
D03*
D31*
X11711240Y6208749D02*
D03*
Y6358749D02*
D03*
D32*
X11270500Y6629500D02*
D03*
X11041500D02*
D03*
D33*
X11408661Y7277273D02*
D03*
X11573661D02*
D03*
D34*
X11761770Y7656298D02*
D03*
Y7158798D02*
D03*
D35*
X12019270Y7562548D02*
D03*
D36*
Y7292548D02*
D03*
D37*
Y7745048D02*
D03*
Y7070048D02*
D03*
D38*
X9720000Y6057500D02*
D03*
X10480000D02*
D03*
D39*
X9836092Y6458908D02*
X9850000Y6445000D01*
X9836092Y6458908D02*
Y6985735D01*
X10611147Y6810094D02*
X10619265D01*
X10658844Y6849673D02*
X10760334D01*
X10619265Y6810094D02*
X10658844Y6849673D01*
X9837855Y6987259D02*
Y6987497D01*
X9825855Y6975259D02*
X9837855Y6987259D01*
X9732530Y6950052D02*
X9740648D01*
X9765855Y6975259D02*
X9825855D01*
X9740648Y6950052D02*
X9765855Y6975259D01*
X10800000Y6730000D02*
Y6800000D01*
X10760334Y6849673D02*
X10780836Y6829171D01*
Y6799673D02*
X10792836Y6787673D01*
X10780836Y6799673D02*
Y6829171D01*
X9360000Y7460000D02*
X9511924D01*
X9556924Y7505000D02*
X9576195D01*
X9302480Y7517520D02*
X9360000Y7460000D01*
X9511924D02*
X9556924Y7505000D01*
X9302480Y7517520D02*
Y7704570D01*
X9576195Y7505000D02*
X9639242Y7568047D01*
X9687233D02*
Y7646066D01*
X9725427Y7684260D01*
X9734260D02*
X9740000Y7690000D01*
X9725427Y7684260D02*
X9734260D01*
X10020000Y7600000D02*
X10025740Y7605740D01*
X10022000Y7680500D02*
Y7800000D01*
Y7680500D02*
X10065000Y7637500D01*
X10792836Y6787673D02*
X10794836D01*
X10062500Y7605740D02*
X10065000Y7608240D01*
X10025740Y7605740D02*
X10062500D01*
X10065000Y7608240D02*
Y7615000D01*
Y7637500D01*
D40*
X11421134Y6904230D02*
X11428788D01*
X9540541Y6909665D02*
X9546565D01*
X9558281Y6889683D02*
X9575245Y6872719D01*
X9558281Y6889683D02*
Y6897949D01*
X9488281Y6941934D02*
X9508272D01*
X9465000Y6965215D02*
Y6990313D01*
X9575245Y6872719D02*
X9582719D01*
X9546565Y6909665D02*
X9558281Y6897949D01*
X9508272Y6941934D02*
X9540541Y6909665D01*
X9465000Y6965215D02*
X9488281Y6941934D01*
X10327689Y6590532D02*
X10350062Y6568158D01*
X10327689Y6590532D02*
Y6601356D01*
X10350062Y6445062D02*
Y6568158D01*
X10350000Y6445000D02*
X10350062Y6445062D01*
X10713312Y8491311D02*
X10722000Y8500000D01*
X10619878Y8491311D02*
X10713312D01*
X10612225Y8483658D02*
X10619878Y8491311D01*
X9833043Y7060685D02*
X9837855Y7065497D01*
X9734053Y7060685D02*
X9833043D01*
X9729240Y7055873D02*
X9734053Y7060685D01*
X10722000Y8402727D02*
X10956552Y8168175D01*
X10722000Y8402727D02*
Y8500000D01*
X9582719Y6737211D02*
Y6872719D01*
X9579276Y6733769D02*
X9582719Y6737211D01*
X9579276Y6733769D02*
X9717257D01*
X9849396Y7076256D02*
Y7112383D01*
X9839074Y7065935D02*
X9849396Y7076256D01*
X9937013Y7200000D02*
X10000000D01*
X9849396Y7112383D02*
X9937013Y7200000D01*
X11255228Y6918446D02*
X11269444Y6904230D01*
X11499500Y6629500D02*
X11533107Y6663107D01*
Y6726307D01*
X11453076Y6750000D02*
Y6755067D01*
X11467137Y6769128D02*
X11556768D01*
X11533107Y6726307D02*
X11560936Y6754136D01*
X11556768Y6769128D02*
X11560936Y6764960D01*
X11739679Y6566952D02*
X11786287D01*
X11798375Y6554864D01*
X11694087Y6601720D02*
X11704911D01*
X11560936Y6754136D02*
Y6764960D01*
X11704911Y6601720D02*
X11739679Y6566952D01*
X11269444Y6904230D02*
X11421134D01*
Y6911883D02*
Y6998070D01*
Y6911883D02*
X11428788Y6904230D01*
X11453076Y6755067D02*
X11467137Y6769128D01*
X11557141Y6920151D02*
Y6987141D01*
X11611517Y6865532D02*
Y6865776D01*
X11557141Y6920151D02*
X11611517Y6865776D01*
X11557141Y6987141D02*
X11560000Y6990000D01*
X11405123Y7014081D02*
X11421134Y6998070D01*
X11575380Y7525934D02*
X11581188Y7531741D01*
X11747462D01*
X11753270Y7537548D01*
X9482500Y7736386D02*
Y7845000D01*
X9492000Y7698190D02*
Y7715317D01*
X9491737Y7715580D02*
Y7727150D01*
X9482500Y7736386D02*
X9491737Y7727150D01*
X9492000Y7698190D02*
X9501885Y7688305D01*
X9491737Y7715580D02*
X9492000Y7715317D01*
D41*
X11118185Y6916203D02*
Y6984471D01*
X11263036Y7129322D02*
X11403687D01*
X11118185Y6984471D02*
X11263036Y7129322D01*
X11089814Y6896183D02*
X11098165D01*
X11041500Y6629500D02*
Y6847869D01*
X11098165Y6896183D02*
X11118185Y6916203D01*
X11041500Y6847869D02*
X11089814Y6896183D01*
X11408661Y7160079D02*
Y7277273D01*
X11405123Y7156541D02*
X11408661Y7160079D01*
X11378687Y7149342D02*
Y7154322D01*
Y7149342D02*
X11398707Y7129322D01*
X11560000Y7130000D02*
Y7241113D01*
X11644142Y7278329D02*
X11752489D01*
X11570000Y7260000D02*
X11584921Y7274921D01*
X11640734D01*
X11644142Y7278329D01*
X11711240Y6358749D02*
X11738240Y6385749D01*
X11761285D02*
X11790261Y6414725D01*
Y6456899D02*
X11795171Y6461808D01*
X11738240Y6385749D02*
X11761285D01*
X11790261Y6414725D02*
Y6456899D01*
X10680000Y7400000D02*
X10706500D01*
X11743770Y7398048D02*
X11753270Y7407548D01*
X11152325Y7398048D02*
X11743770D01*
X11152276Y7398000D02*
X11152325Y7398048D01*
X10708500Y7398000D02*
X11152276D01*
X10706500Y7400000D02*
X10708500Y7398000D01*
X10706500Y7350000D02*
X10708500Y7352000D01*
X11171330D02*
X11171378Y7352048D01*
X10680000Y7350000D02*
X10706500D01*
X10708500Y7352000D02*
X11171330D01*
X11171378Y7352048D02*
X11743770D01*
X11753270Y7342548D01*
D42*
X10938819Y6997094D02*
Y7107580D01*
Y6997094D02*
X10945700Y6990213D01*
X10936200Y7110199D02*
X10938819Y7107580D01*
X10889633Y6849212D02*
X10893229D01*
X10815660Y6923186D02*
X10889633Y6849212D01*
X10815660Y6923186D02*
Y6980729D01*
X10823917Y6988987D01*
X10533559Y6769315D02*
Y6822840D01*
X10565000Y6854281D01*
Y6935000D01*
X10096520Y7803480D02*
X10100000Y7800000D01*
X10093041Y7930073D02*
X10096520Y7926593D01*
Y7803480D02*
Y7926593D01*
X10540636Y6712238D02*
X10544807Y6708067D01*
X10533559Y6769315D02*
X10540636Y6762238D01*
X10544807Y6708067D02*
X10565000D01*
X10540636Y6712238D02*
Y6762238D01*
X10705500Y6778337D02*
Y6785500D01*
X10695174Y6773174D02*
X10700336D01*
X10705500Y6778337D01*
X10613506Y6691506D02*
X10695174Y6773174D01*
X10562398Y6691506D02*
X10613506D01*
X10557631Y6686738D02*
X10562398Y6691506D01*
X10560855Y6541690D02*
X10564079Y6538466D01*
X10557631Y6686738D02*
X10560855Y6683514D01*
Y6541690D02*
Y6683514D01*
X9804004Y8160559D02*
X9878923D01*
X9685000Y8170000D02*
X9765233D01*
X9387186Y7572814D02*
X9390000Y7570000D01*
X9387186Y7572814D02*
Y7695243D01*
X9566668Y7417818D02*
X9571782Y7422932D01*
X9510000Y7550000D02*
X9560583Y7600583D01*
X9572554D01*
X9595155Y7623183D02*
Y7663940D01*
X9650000Y7455000D02*
X9658500Y7463500D01*
X9571782Y7422932D02*
X9679733D01*
X9572554Y7600583D02*
X9595155Y7623183D01*
X9586057Y7673038D02*
X9595155Y7663940D01*
X9658500Y7463500D02*
X9791500D01*
X9679733Y7422932D02*
X9684847Y7428046D01*
X9791500Y7463500D02*
X9800000Y7472000D01*
X9385071Y7697357D02*
X9387186Y7695243D01*
X9386371Y7698057D02*
X9430000Y7741686D01*
X9384371Y7698057D02*
X9386371D01*
X9430000Y7741686D02*
Y7815900D01*
X9430000Y7815900D02*
X9430000Y7815900D01*
X9557744Y7740900D02*
X9576315Y7722328D01*
Y7682780D02*
X9586057Y7673038D01*
X9576315Y7682780D02*
Y7722328D01*
X9530000Y7759938D02*
Y7815900D01*
X9530000Y7815900D01*
X9549038Y7740900D02*
X9557744D01*
X9530000Y7759938D02*
X9549038Y7740900D01*
X9101155Y8174642D02*
X9110626D01*
X9649163Y8205837D02*
Y8394878D01*
X9931794Y8082084D02*
Y8117159D01*
Y8082084D02*
X9949563Y8064316D01*
X9878923Y8160559D02*
X9915627Y8123856D01*
X9774850Y8160559D02*
X9804004D01*
X9925098Y8123856D02*
X9931794Y8117159D01*
X9915627Y8123856D02*
X9925098D01*
X10011654Y8064316D02*
X10021000Y8054970D01*
X9949563Y8064316D02*
X10011654D01*
X9657500Y8175000D02*
X9662500Y8170000D01*
X9655001Y8170000D02*
X9685000D01*
X9657500Y8175000D02*
Y8197500D01*
X9649163Y8205837D02*
X9657500Y8197500D01*
X9645498Y8395828D02*
X9710516D01*
X9765233Y8170000D02*
X9774762Y8160472D01*
X9774850Y8160559D01*
X9662500Y8170000D02*
X9685000D01*
X9710516Y8395828D02*
X9756344Y8350000D01*
X9760000D01*
X10115000Y7615000D02*
Y7685000D01*
X10100000Y7700000D02*
X10115000Y7685000D01*
X10100000Y7700000D02*
Y7800000D01*
X10680000Y7500000D02*
X10761000D01*
X10800000Y7539000D01*
X10800677Y7540323D02*
X10879786D01*
X10800000Y7541000D02*
X10800677Y7540323D01*
X10895053Y7525056D02*
X10904524D01*
X10879786Y7540323D02*
X10895053Y7525056D01*
X10800000Y7539000D02*
Y7541000D01*
X9124243Y8161025D02*
X9225275D01*
X9110626Y8174642D02*
X9124243Y8161025D01*
X9414600Y7192100D02*
X9482500Y7260000D01*
X9414600Y7045399D02*
Y7192100D01*
X9445313Y7000000D02*
X9460000D01*
X9427295Y7018018D02*
X9445313Y7000000D01*
X9427295Y7018018D02*
Y7032705D01*
X9414600Y7045399D02*
X9427295Y7032705D01*
X10821815Y7095109D02*
X10824315D01*
X10830330Y7101124D01*
Y7103624D01*
X10680000Y7050000D02*
X10749286D01*
X10781215Y7081929D01*
X10808635D01*
X10821815Y7095109D01*
X9394905Y7350000D02*
X10000000D01*
X9353012Y6888673D02*
Y7308107D01*
X9394905Y7350000D01*
X9527631Y7107766D02*
X9547631Y7127766D01*
X9577500Y7187117D02*
Y7221093D01*
X9547631Y7127766D02*
Y7157248D01*
X9577500Y7187117D01*
X9526580Y7107766D02*
X9527631D01*
X9607948Y7116222D02*
X9632536D01*
X9644080Y7152882D02*
X9658725Y7167527D01*
X9675989D02*
X9744924Y7236463D01*
X9644080Y7127766D02*
Y7152882D01*
X9658725Y7167527D02*
X9675989D01*
X9632536Y7116222D02*
X9644080Y7127766D01*
X9744924Y7255698D02*
X9789226Y7300000D01*
X9744924Y7236463D02*
Y7255698D01*
X9353012Y6888673D02*
X9367656Y6874028D01*
X9442963D01*
X11130641Y8314925D02*
X11133099Y8312467D01*
Y8247425D02*
X11213259Y8167265D01*
X11073532Y8370954D02*
Y8498599D01*
Y8370954D02*
X11129561Y8314925D01*
X11133099Y8247425D02*
Y8312467D01*
X11129561Y8314925D02*
X11130641D01*
X11022454Y8234268D02*
Y8273619D01*
X10985433Y8310639D02*
X11022454Y8273619D01*
X10955000Y8407817D02*
X10976823Y8385995D01*
Y8331427D02*
Y8385995D01*
Y8331427D02*
X10985433Y8322816D01*
Y8310639D02*
Y8322816D01*
X10955000Y8407817D02*
Y8500000D01*
X11022454Y8234268D02*
X11084905Y8171816D01*
X10265189Y6460189D02*
Y6907312D01*
X10265000Y6907500D02*
X10265189Y6907312D01*
X10250000Y6445000D02*
X10265189Y6460189D01*
X10265000Y6907500D02*
Y6934812D01*
X10611147Y6877593D02*
X10615000Y6881447D01*
X10611147Y6810094D02*
Y6877593D01*
X10615000Y6881447D02*
Y6935000D01*
X10515000Y6867920D02*
Y6935000D01*
X10488559Y6761929D02*
Y6841479D01*
X10515000Y6867920D01*
X10177415Y7912848D02*
Y7934086D01*
X10118929Y7992573D02*
X10177415Y7934086D01*
X9970202Y7912848D02*
X10049927Y7992573D01*
X10118929D01*
X9442963Y6740463D02*
Y6872963D01*
X9561337Y7018018D02*
X9581982D01*
X9600000Y7000000D01*
X9527500Y7051855D02*
X9561337Y7018018D01*
X9432500Y6730000D02*
X9442963Y6740463D01*
X9577500Y7221093D02*
X9616407Y7260000D01*
X9527500Y7051855D02*
Y7099170D01*
X10238700Y8281634D02*
Y8316742D01*
X10298900Y8214546D02*
Y8221434D01*
X10238700Y8281634D02*
X10298900Y8221434D01*
X10438868Y6712238D02*
X10488559Y6761929D01*
X10417903Y6691991D02*
X10438150Y6712238D01*
X10417903Y6691273D02*
Y6691991D01*
X10438150Y6712238D02*
X10438868D01*
X10293527Y8174981D02*
X10307475Y8161032D01*
Y8086289D02*
Y8161032D01*
X10293527Y8174981D02*
Y8189878D01*
X10106369Y8057202D02*
X10170959D01*
X10264139Y7964022D01*
X10183858Y8107942D02*
Y8199546D01*
X10315000Y7615000D02*
Y7976801D01*
X10183858Y8107942D02*
X10315000Y7976801D01*
X10264139Y7643361D02*
Y7964022D01*
X10029836Y8196656D02*
X10031281Y8198101D01*
X10182413D01*
X10183858Y8199546D01*
X10298900Y8214546D02*
X10313900Y8199546D01*
X10230383Y8325058D02*
X10238700Y8316742D01*
X9832947Y6992405D02*
X9844539Y7003997D01*
X9639242Y7568047D02*
X9684847D01*
X9823946Y7552546D02*
X9826493Y7550000D01*
X9697433Y7552546D02*
X9823946D01*
X9684583Y7565397D02*
X9697433Y7552546D01*
X9844539Y7003997D02*
X9878317D01*
X9913420Y7039100D02*
Y7104559D01*
X9878317Y7003997D02*
X9913420Y7039100D01*
Y7104559D02*
X9958860Y7150000D01*
X10000000D01*
X9826493Y7550000D02*
X10013303D01*
Y7593303D01*
X10020000Y7600000D01*
X9314884Y7704570D02*
X9322871Y7712557D01*
Y7738519D01*
X9341909Y7757557D02*
X9346019D01*
X9322871Y7738519D02*
X9341909Y7757557D01*
X9374362Y7785900D02*
X9375000D01*
X9346019Y7757557D02*
X9374362Y7785900D01*
X9375000D02*
X9380000Y7790900D01*
X9326275Y7815902D02*
X9379998D01*
X9380000Y7815900D01*
X9380000Y7790900D02*
Y7847500D01*
X9685000Y7920000D02*
X9685000Y7920000D01*
X9738462D01*
X9804004Y7985542D02*
Y8075998D01*
X9738462Y7920000D02*
X9804004Y7985542D01*
Y8075998D02*
X9819232Y8060770D01*
X9818504Y8059498D02*
X9842643D01*
X9905757Y7996288D02*
Y7996384D01*
X9842643Y8059498D02*
X9905757Y7996384D01*
X10707500Y7550000D02*
Y7550462D01*
X10680000Y7550000D02*
X10707500D01*
Y7550462D02*
X10759538Y7602500D01*
X11270500Y5989821D02*
X11308229D01*
X11270500Y6380000D02*
Y6629500D01*
X11324249Y6005841D02*
Y6119542D01*
X11308229Y5989821D02*
X11324249Y6005841D01*
Y6119542D02*
X11413455Y6208749D01*
X11270500Y6629500D02*
Y6652943D01*
X11304117Y6686560D02*
Y6773296D01*
X11270500Y6652943D02*
X11304117Y6686560D01*
X10759538Y7602500D02*
X10785500D01*
X10801000Y7618000D01*
X10904480Y7618641D02*
X10906324Y7620485D01*
X10800359Y7618641D02*
X10904480D01*
X10353670Y8316797D02*
Y8388902D01*
X10365000Y7615000D02*
Y7642500D01*
X10370000Y7647500D02*
Y7950375D01*
X10396109Y7976484D02*
Y8279358D01*
X10368670Y8301797D02*
X10373670D01*
X10365000Y7642500D02*
X10370000Y7647500D01*
Y7950375D02*
X10396109Y7976484D01*
X10373670Y8301797D02*
X10396109Y8279358D01*
X10353670Y8316797D02*
X10368670Y8301797D01*
X9330000Y8378595D02*
X9366327Y8414922D01*
X9330000Y8242500D02*
Y8378595D01*
X9366327Y8414922D02*
Y8427099D01*
X10243800Y8498773D02*
X10353670Y8388902D01*
X9547359Y8498773D02*
X10243800D01*
X10615000Y7615000D02*
X10661008D01*
X11082324Y8036315D01*
X10920000Y7450000D02*
X11206805Y7736805D01*
X10680000Y7450000D02*
X10920000D01*
X11206805Y7736805D02*
Y8035176D01*
X10798000Y8500000D02*
X10955000D01*
X9858876Y7250000D02*
X10000000D01*
X9801488Y7187180D02*
Y7192611D01*
X9858876Y7250000D01*
X10853081Y7931373D02*
X10956887Y8035179D01*
X10515000Y7776613D02*
X10669760Y7931373D01*
X10853081D01*
X10515000Y7615000D02*
Y7776613D01*
X9789226Y7300000D02*
X10000000D01*
X9380000Y8242500D02*
Y8331414D01*
X9547359Y8498773D01*
X9874990Y7912848D02*
X9970202D01*
X10177415D02*
X10215000Y7875263D01*
X9763528Y7801385D02*
X9874990Y7912848D01*
X9585000Y7801385D02*
X9763528D01*
X9580000Y7806385D02*
X9585000Y7801385D01*
X9580000Y7806385D02*
Y7815900D01*
X10215000Y7615000D02*
Y7875263D01*
X9530000Y8365980D02*
X9546831Y8382811D01*
X9549515D01*
X9562689Y8395984D01*
X9530000Y8272500D02*
Y8300000D01*
Y8242500D02*
Y8272500D01*
X9530000D02*
Y8365980D01*
X9562689Y8395984D02*
Y8398668D01*
X9530000Y8242500D02*
X9530000Y8242500D01*
X10264139Y7643361D02*
X10265000Y7642500D01*
Y7615861D02*
Y7642500D01*
X10115313Y6784382D02*
Y6912539D01*
X9950000Y6619069D02*
X10115313Y6784382D01*
X9950000Y6445000D02*
Y6619069D01*
X10165000Y6758833D02*
Y6935000D01*
X10050000Y6445000D02*
Y6643833D01*
X10165000Y6758833D01*
X10146961Y6642866D02*
X10215000Y6710906D01*
X10146961Y6448039D02*
Y6642866D01*
X10215000Y6710906D02*
Y6935000D01*
X10146961Y6448039D02*
X10150000Y6445000D01*
D43*
X10800000Y6640000D02*
Y6730000D01*
D44*
X11250000Y6380000D02*
X11421251Y6208749D01*
X11060000Y6380000D02*
X11250000D01*
X11421251Y6208749D02*
X11711240D01*
X10800000Y6640000D02*
X11060000Y6380000D01*
D45*
X9160000Y6040000D02*
D03*
X12000000Y8400000D02*
D03*
Y6100000D02*
D03*
X9200000Y8400000D02*
D03*
D46*
X11336174Y8100841D02*
D03*
X10809082Y8182740D02*
D03*
X10811813Y8013423D02*
D03*
D47*
X9555842Y6249948D02*
D03*
X10705842Y6499948D02*
D03*
X10455842Y7899948D02*
D03*
X10505842Y8049948D02*
D03*
X10500000Y8300000D02*
D03*
X10455842Y8449948D02*
D03*
X10055842Y8399948D02*
D03*
X12105842Y8249948D02*
D03*
Y8099948D02*
D03*
X11905842Y8249948D02*
D03*
Y8099948D02*
D03*
X11705842Y8449948D02*
D03*
Y8249948D02*
D03*
Y8099948D02*
D03*
X12105842Y7949948D02*
D03*
X11905842D02*
D03*
X11705842D02*
D03*
X11483195Y7485328D02*
D03*
X11479237Y7659473D02*
D03*
X11305842Y7649948D02*
D03*
Y7499948D02*
D03*
X11105842D02*
D03*
X12105842Y6249948D02*
D03*
Y6799948D02*
D03*
X11955842Y6699948D02*
D03*
X11992119Y6516143D02*
D03*
X12105842Y6599948D02*
D03*
X12055842Y6399948D02*
D03*
X11955842Y6299948D02*
D03*
X11855842Y6149948D02*
D03*
Y5999948D02*
D03*
X11705842D02*
D03*
X10755842Y6299948D02*
D03*
X10605842D02*
D03*
X10755842Y6049948D02*
D03*
X10605842D02*
D03*
X9555842D02*
D03*
X9355842D02*
D03*
X9255842Y6849948D02*
D03*
Y6999948D02*
D03*
Y7199948D02*
D03*
Y7399948D02*
D03*
X9105842Y6749948D02*
D03*
Y6899948D02*
D03*
Y7099948D02*
D03*
X9098831Y7301166D02*
D03*
X9089910Y7637180D02*
D03*
X9105842Y7799948D02*
D03*
X9100000Y7500000D02*
D03*
D48*
X10120000Y7385000D02*
D03*
Y7055000D02*
D03*
X10230000D02*
D03*
Y7165000D02*
D03*
X10120000D02*
D03*
Y7275000D02*
D03*
X10340000D02*
D03*
X10230000D02*
D03*
X10340000Y7055000D02*
D03*
X10450000D02*
D03*
X10560000Y7165000D02*
D03*
X10340000D02*
D03*
X10450000Y7275000D02*
D03*
Y7165000D02*
D03*
X10560000Y7275000D02*
D03*
X10120000Y7495000D02*
D03*
X10340000Y7385000D02*
D03*
X10560000D02*
D03*
X10450000D02*
D03*
X10230000D02*
D03*
Y7495000D02*
D03*
X10450000D02*
D03*
X10340000D02*
D03*
X10560000D02*
D03*
Y7055000D02*
D03*
X9510000Y7990000D02*
D03*
X9400000D02*
D03*
Y8100000D02*
D03*
X9510000D02*
D03*
D49*
X10893229Y6849212D02*
D03*
X10327689Y6601356D02*
D03*
X10093041Y7930073D02*
D03*
X10612225Y8483658D02*
D03*
X9729240Y7055873D02*
D03*
X10564079Y6538466D02*
D03*
X9390000Y7570000D02*
D03*
X9566668Y7417818D02*
D03*
X9510000Y7550000D02*
D03*
X9717257Y6733769D02*
D03*
X9101155Y8174642D02*
D03*
X9925098Y8123856D02*
D03*
X9760000Y8350000D02*
D03*
X11694087Y6601720D02*
D03*
X11428788Y6904230D02*
D03*
X11560936Y6764960D02*
D03*
X11611517Y6865532D02*
D03*
X10904524Y7525056D02*
D03*
X11575380Y7525934D02*
D03*
X11130641Y8314925D02*
D03*
X10611147Y6810094D02*
D03*
X9732530Y6950052D02*
D03*
X10307475Y8086289D02*
D03*
X10020000Y7600000D02*
D03*
X9740000Y7690000D02*
D03*
X9905757Y7996288D02*
D03*
X10906324Y7620485D02*
D03*
D50*
X10985433Y8322816D02*
D03*
X10029836Y8196656D02*
D03*
X9366327Y8427099D02*
D03*
X9801488Y7187180D02*
D03*
%TF.MD5,6de1c5c32d350e990ebc375863bd66a2*%
M02*
