%TF.GenerationSoftware,Altium Limited,Altium Designer,25.8.1 (18)*%
G04 Layer_Color=8388736*
%FSLAX45Y45*%
%MOMM*%
%TF.SameCoordinates,0B6E472D-4EE4-4538-A8AE-326EDE427783*%
%TF.FilePolarity,Negative*%
%TF.FileFunction,Soldermask,Top*%
%TF.Part,Single*%
G01*
G75*
%TA.AperFunction,ConnectorPad*%
%ADD24R,0.87213X1.00429*%
%ADD26R,1.38000X0.45000*%
%TA.AperFunction,BGAPad,CuDef*%
%ADD27C,0.78700*%
%TA.AperFunction,ConnectorPad*%
G04:AMPARAMS|DCode=30|XSize=1.00429mm|YSize=3.18213mm|CornerRadius=0.43687mm|HoleSize=0mm|Usage=FLASHONLY|Rotation=270.000|XOffset=0mm|YOffset=0mm|HoleType=Round|Shape=RoundedRectangle|*
%AMROUNDEDRECTD30*
21,1,1.00429,2.30840,0,0,270.0*
21,1,0.13056,3.18213,0,0,270.0*
1,1,0.87373,-1.15420,-0.06528*
1,1,0.87373,-1.15420,0.06528*
1,1,0.87373,1.15420,0.06528*
1,1,0.87373,1.15420,-0.06528*
%
%ADD30ROUNDEDRECTD30*%
%TA.AperFunction,SMDPad,CuDef*%
%ADD31R,0.80000X0.80000*%
%TA.AperFunction,ConnectorPad*%
G04:AMPARAMS|DCode=32|XSize=1.00429mm|YSize=0.87213mm|CornerRadius=0.43606mm|HoleSize=0mm|Usage=FLASHONLY|Rotation=270.000|XOffset=0mm|YOffset=0mm|HoleType=Round|Shape=RoundedRectangle|*
%AMROUNDEDRECTD32*
21,1,1.00429,0.00000,0,0,270.0*
21,1,0.13216,0.87213,0,0,270.0*
1,1,0.87213,0.00000,-0.06608*
1,1,0.87213,0.00000,0.06608*
1,1,0.87213,0.00000,0.06608*
1,1,0.87213,0.00000,-0.06608*
%
%ADD32ROUNDEDRECTD32*%
%ADD34R,1.55000X1.42500*%
%ADD35R,1.90000X1.00000*%
%ADD36R,1.90000X1.80000*%
%ADD37R,1.30000X1.65000*%
%TA.AperFunction,ComponentPad*%
%ADD46C,0.99100*%
%TA.AperFunction,SMDPad,CuDef*%
%ADD57O,1.00320X0.45320*%
%ADD58O,0.45320X1.00320*%
%ADD59R,5.80320X5.80320*%
G04:AMPARAMS|DCode=60|XSize=0.7532mm|YSize=0.7032mm|CornerRadius=0.1641mm|HoleSize=0mm|Usage=FLASHONLY|Rotation=90.000|XOffset=0mm|YOffset=0mm|HoleType=Round|Shape=RoundedRectangle|*
%AMROUNDEDRECTD60*
21,1,0.75320,0.37500,0,0,90.0*
21,1,0.42500,0.70320,0,0,90.0*
1,1,0.32820,0.18750,0.21250*
1,1,0.32820,0.18750,-0.21250*
1,1,0.32820,-0.18750,-0.21250*
1,1,0.32820,-0.18750,0.21250*
%
%ADD60ROUNDEDRECTD60*%
G04:AMPARAMS|DCode=61|XSize=1.0032mm|YSize=1.1032mm|CornerRadius=0.1816mm|HoleSize=0mm|Usage=FLASHONLY|Rotation=90.000|XOffset=0mm|YOffset=0mm|HoleType=Round|Shape=RoundedRectangle|*
%AMROUNDEDRECTD61*
21,1,1.00320,0.74000,0,0,90.0*
21,1,0.64000,1.10320,0,0,90.0*
1,1,0.36320,0.37000,0.32000*
1,1,0.36320,0.37000,-0.32000*
1,1,0.36320,-0.37000,-0.32000*
1,1,0.36320,-0.37000,0.32000*
%
%ADD61ROUNDEDRECTD61*%
%ADD62R,1.25320X1.25320*%
%ADD63R,0.74320X0.78320*%
G04:AMPARAMS|DCode=64|XSize=0.9632mm|YSize=0.8636mm|CornerRadius=0.18415mm|HoleSize=0mm|Usage=FLASHONLY|Rotation=180.000|XOffset=0mm|YOffset=0mm|HoleType=Round|Shape=RoundedRectangle|*
%AMROUNDEDRECTD64*
21,1,0.96320,0.49530,0,0,180.0*
21,1,0.59490,0.86360,0,0,180.0*
1,1,0.36830,-0.29745,0.24765*
1,1,0.36830,0.29745,0.24765*
1,1,0.36830,0.29745,-0.24765*
1,1,0.36830,-0.29745,-0.24765*
%
%ADD64ROUNDEDRECTD64*%
%ADD65R,0.78320X0.74320*%
%ADD66R,2.90320X2.80320*%
%ADD67R,1.00320X0.55320*%
%ADD68R,0.55320X1.05320*%
G04:AMPARAMS|DCode=69|XSize=0.8032mm|YSize=1.7532mm|CornerRadius=0.1766mm|HoleSize=0mm|Usage=FLASHONLY|Rotation=180.000|XOffset=0mm|YOffset=0mm|HoleType=Round|Shape=RoundedRectangle|*
%AMROUNDEDRECTD69*
21,1,0.80320,1.40000,0,0,180.0*
21,1,0.45000,1.75320,0,0,180.0*
1,1,0.35320,-0.22500,0.70000*
1,1,0.35320,0.22500,0.70000*
1,1,0.35320,0.22500,-0.70000*
1,1,0.35320,-0.22500,-0.70000*
%
%ADD69ROUNDEDRECTD69*%
G04:AMPARAMS|DCode=70|XSize=0.9632mm|YSize=0.8636mm|CornerRadius=0.18415mm|HoleSize=0mm|Usage=FLASHONLY|Rotation=270.000|XOffset=0mm|YOffset=0mm|HoleType=Round|Shape=RoundedRectangle|*
%AMROUNDEDRECTD70*
21,1,0.96320,0.49530,0,0,270.0*
21,1,0.59490,0.86360,0,0,270.0*
1,1,0.36830,-0.24765,-0.29745*
1,1,0.36830,-0.24765,0.29745*
1,1,0.36830,0.24765,0.29745*
1,1,0.36830,0.24765,-0.29745*
%
%ADD70ROUNDEDRECTD70*%
G04:AMPARAMS|DCode=71|XSize=0.7532mm|YSize=0.7032mm|CornerRadius=0.1641mm|HoleSize=0mm|Usage=FLASHONLY|Rotation=0.000|XOffset=0mm|YOffset=0mm|HoleType=Round|Shape=RoundedRectangle|*
%AMROUNDEDRECTD71*
21,1,0.75320,0.37500,0,0,0.0*
21,1,0.42500,0.70320,0,0,0.0*
1,1,0.32820,0.21250,-0.18750*
1,1,0.32820,-0.21250,-0.18750*
1,1,0.32820,-0.21250,0.18750*
1,1,0.32820,0.21250,0.18750*
%
%ADD71ROUNDEDRECTD71*%
%ADD72R,0.90320X0.85320*%
%ADD73R,0.75320X0.85320*%
%ADD74R,1.15320X0.90320*%
G04:AMPARAMS|DCode=75|XSize=1.4032mm|YSize=2.0032mm|CornerRadius=0.1916mm|HoleSize=0mm|Usage=FLASHONLY|Rotation=0.000|XOffset=0mm|YOffset=0mm|HoleType=Round|Shape=RoundedRectangle|*
%AMROUNDEDRECTD75*
21,1,1.40320,1.62000,0,0,0.0*
21,1,1.02000,2.00320,0,0,0.0*
1,1,0.38320,0.51000,-0.81000*
1,1,0.38320,-0.51000,-0.81000*
1,1,0.38320,-0.51000,0.81000*
1,1,0.38320,0.51000,0.81000*
%
%ADD75ROUNDEDRECTD75*%
%TA.AperFunction,ViaPad*%
%ADD76C,1.72720*%
%ADD77C,1.00320*%
%ADD78C,0.75420*%
%ADD79C,0.80320*%
%ADD80C,0.90320*%
D24*
X11499500Y6629500D02*
D03*
D26*
X11753270Y7537548D02*
D03*
X11751402Y7471845D02*
D03*
X11753270Y7407548D02*
D03*
Y7342548D02*
D03*
Y7277548D02*
D03*
D27*
X10956552Y8168175D02*
D03*
X11213259Y8167265D02*
D03*
X10956887Y8035179D02*
D03*
X11084905Y8171816D02*
D03*
X11206805Y8035176D02*
D03*
X11082324Y8036595D02*
D03*
D30*
X11270500Y5970500D02*
D03*
D31*
X11711240Y6208749D02*
D03*
Y6358749D02*
D03*
D32*
X11270500Y6629500D02*
D03*
X11041500D02*
D03*
D34*
X11761770Y7656298D02*
D03*
Y7158798D02*
D03*
D35*
X12019270Y7562548D02*
D03*
D36*
Y7292548D02*
D03*
D37*
Y7745048D02*
D03*
Y7070048D02*
D03*
D46*
X11336174Y8100841D02*
D03*
X10809082Y8182740D02*
D03*
X10811813Y8013423D02*
D03*
D57*
X10000000Y7500000D02*
D03*
Y7450000D02*
D03*
Y7400000D02*
D03*
Y7300000D02*
D03*
Y7100000D02*
D03*
Y7050000D02*
D03*
Y7000000D02*
D03*
X10680000D02*
D03*
Y7050000D02*
D03*
Y7100000D02*
D03*
Y7150000D02*
D03*
Y7200000D02*
D03*
Y7250000D02*
D03*
Y7300000D02*
D03*
Y7450000D02*
D03*
X10000000Y7250000D02*
D03*
X10680000Y7350000D02*
D03*
Y7400000D02*
D03*
X10000000Y7150000D02*
D03*
Y7550000D02*
D03*
X10680000D02*
D03*
X10000000Y7350000D02*
D03*
Y7200000D02*
D03*
X10680000Y7500000D02*
D03*
D58*
X10065000Y6935000D02*
D03*
X10315000D02*
D03*
X10365000D02*
D03*
X10415000D02*
D03*
X10465000D02*
D03*
X10515000D02*
D03*
X10565000Y7615000D02*
D03*
X10465000D02*
D03*
X10415000D02*
D03*
X10265000D02*
D03*
X10165000D02*
D03*
Y6935000D02*
D03*
X10115000D02*
D03*
X10265000D02*
D03*
X10215000D02*
D03*
X10615000Y7615000D02*
D03*
X10515000D02*
D03*
X10215000D02*
D03*
X10315000D02*
D03*
X10615000Y6935000D02*
D03*
X10065000Y7615000D02*
D03*
X10365000D02*
D03*
X10565000Y6935000D02*
D03*
X10115000Y7615000D02*
D03*
D59*
X10340000Y7275000D02*
D03*
D60*
X10945700Y6990213D02*
D03*
X10936200Y7110199D02*
D03*
X10815660Y6990213D02*
D03*
X10021000Y8058198D02*
D03*
X10835152Y7110199D02*
D03*
X11075000Y8500000D02*
D03*
X10955000D02*
D03*
X10121000Y8058198D02*
D03*
D61*
X9453281Y6969683D02*
D03*
X9593281Y6859683D02*
D03*
X9453281D02*
D03*
X9593281Y6979665D02*
D03*
D62*
X9482500Y7260000D02*
D03*
X9577293Y6714052D02*
D03*
X9617500Y7260000D02*
D03*
X9412293Y6714052D02*
D03*
D63*
X9837855Y7065497D02*
D03*
X9826493Y7459047D02*
D03*
X9804004Y8153998D02*
D03*
X10800000Y7541000D02*
D03*
X9837855Y6987497D02*
D03*
X9826493Y7537046D02*
D03*
X9804004Y8075998D02*
D03*
X10800000Y7619000D02*
D03*
D64*
X9684847Y7428046D02*
D03*
X11400000Y7010000D02*
D03*
X11560000Y6990000D02*
D03*
X9684847Y7568047D02*
D03*
X11400000Y7150000D02*
D03*
X11560000Y7130000D02*
D03*
D65*
X9586057Y7673038D02*
D03*
X9384371Y7698057D02*
D03*
X10100000Y7800000D02*
D03*
X9644015Y8397311D02*
D03*
X10716836Y6787673D02*
D03*
X10722000Y8500000D02*
D03*
X9306371Y7698057D02*
D03*
X10022000Y7800000D02*
D03*
X10794836Y6787673D02*
D03*
X10800000Y8500000D02*
D03*
X9566015Y8397311D02*
D03*
X9508057Y7673038D02*
D03*
D66*
X9455000Y8045000D02*
D03*
D67*
X9226300Y8160000D02*
D03*
X9685000Y8170000D02*
D03*
Y7920000D02*
D03*
Y7970000D02*
D03*
Y8020000D02*
D03*
Y8070000D02*
D03*
Y8120000D02*
D03*
X9226276Y7911677D02*
D03*
X9226980Y7960973D02*
D03*
Y8007452D02*
D03*
X9227154Y8056828D02*
D03*
X9227224Y8110293D02*
D03*
D68*
X9430000Y7815900D02*
D03*
X9530000D02*
D03*
X9380000D02*
D03*
X9326275Y7815902D02*
D03*
X9330000Y8272500D02*
D03*
X9580000D02*
D03*
X9530000D02*
D03*
X9480000D02*
D03*
X9430000D02*
D03*
X9380000D02*
D03*
X9580000Y7815900D02*
D03*
X9480000D02*
D03*
D69*
X10350000Y6445000D02*
D03*
X9850000D02*
D03*
X10250000D02*
D03*
X10150000D02*
D03*
X10050000D02*
D03*
X9950000D02*
D03*
D70*
X10557631Y6686738D02*
D03*
X11258185Y6921183D02*
D03*
X11444117Y6773296D02*
D03*
X11304117D02*
D03*
X11118185Y6921183D02*
D03*
X10417630Y6686738D02*
D03*
D71*
X11797179Y6553669D02*
D03*
Y6463669D02*
D03*
D72*
X9526580Y7107766D02*
D03*
X9621580D02*
D03*
D73*
X10183858Y8199546D02*
D03*
X10313900D02*
D03*
X10235096Y8330870D02*
D03*
X10365066D02*
D03*
D74*
X11408661Y7277273D02*
D03*
X11573661D02*
D03*
D75*
X9720000Y6057500D02*
D03*
X10480000D02*
D03*
D76*
X9160000Y6040000D02*
D03*
X12000000Y8400000D02*
D03*
Y6100000D02*
D03*
X9200000Y8400000D02*
D03*
D77*
X9555842Y6249948D02*
D03*
X10705842Y6499948D02*
D03*
X10455842Y7899948D02*
D03*
X10505842Y8049948D02*
D03*
X10500000Y8300000D02*
D03*
X10455842Y8449948D02*
D03*
X10055842Y8399948D02*
D03*
X12105842Y8249948D02*
D03*
Y8099948D02*
D03*
X11905842Y8249948D02*
D03*
Y8099948D02*
D03*
X11705842Y8449948D02*
D03*
Y8249948D02*
D03*
Y8099948D02*
D03*
X12105842Y7949948D02*
D03*
X11905842D02*
D03*
X11705842D02*
D03*
X11483195Y7485328D02*
D03*
X11479237Y7659473D02*
D03*
X11305842Y7649948D02*
D03*
Y7499948D02*
D03*
X11105842D02*
D03*
X12105842Y6249948D02*
D03*
Y6799948D02*
D03*
X11955842Y6699948D02*
D03*
X11992119Y6516143D02*
D03*
X12105842Y6599948D02*
D03*
X12055842Y6399948D02*
D03*
X11955842Y6299948D02*
D03*
X11855842Y6149948D02*
D03*
Y5999948D02*
D03*
X11705842D02*
D03*
X10755842Y6299948D02*
D03*
X10605842D02*
D03*
X10755842Y6049948D02*
D03*
X10605842D02*
D03*
X9555842D02*
D03*
X9355842D02*
D03*
X9255842Y6849948D02*
D03*
Y6999948D02*
D03*
Y7199948D02*
D03*
Y7399948D02*
D03*
X9105842Y6749948D02*
D03*
Y6899948D02*
D03*
Y7099948D02*
D03*
X9098831Y7301166D02*
D03*
X9089910Y7637180D02*
D03*
X9105842Y7799948D02*
D03*
X9100000Y7500000D02*
D03*
D78*
X10120000Y7385000D02*
D03*
Y7055000D02*
D03*
X10230000D02*
D03*
Y7165000D02*
D03*
X10120000D02*
D03*
Y7275000D02*
D03*
X10340000D02*
D03*
X10230000D02*
D03*
X10340000Y7055000D02*
D03*
X10450000D02*
D03*
X10560000Y7165000D02*
D03*
X10340000D02*
D03*
X10450000Y7275000D02*
D03*
Y7165000D02*
D03*
X10560000Y7275000D02*
D03*
X10120000Y7495000D02*
D03*
X10340000Y7385000D02*
D03*
X10560000D02*
D03*
X10450000D02*
D03*
X10230000D02*
D03*
Y7495000D02*
D03*
X10450000D02*
D03*
X10340000D02*
D03*
X10560000D02*
D03*
Y7055000D02*
D03*
X9510000Y7990000D02*
D03*
X9400000D02*
D03*
Y8100000D02*
D03*
X9510000D02*
D03*
D79*
X10893229Y6849212D02*
D03*
X10327689Y6601356D02*
D03*
X10093041Y7930073D02*
D03*
X10612225Y8483658D02*
D03*
X9729240Y7055873D02*
D03*
X10564079Y6538466D02*
D03*
X9390000Y7570000D02*
D03*
X9566668Y7417818D02*
D03*
X9510000Y7550000D02*
D03*
X9717257Y6733769D02*
D03*
X9101155Y8174642D02*
D03*
X9925098Y8123856D02*
D03*
X9760000Y8350000D02*
D03*
X11694087Y6601720D02*
D03*
X11428788Y6904230D02*
D03*
X11560936Y6764960D02*
D03*
X11611517Y6865532D02*
D03*
X10904524Y7525056D02*
D03*
X11575380Y7525934D02*
D03*
X11130641Y8314925D02*
D03*
X10611147Y6810094D02*
D03*
X9732530Y6950052D02*
D03*
X10307475Y8086289D02*
D03*
X10020000Y7600000D02*
D03*
X9740000Y7690000D02*
D03*
X9905757Y7996288D02*
D03*
X10906324Y7620485D02*
D03*
D80*
X10985433Y8322816D02*
D03*
X10029836Y8196656D02*
D03*
X9366327Y8427099D02*
D03*
X9801488Y7187180D02*
D03*
%TF.MD5,72f8b66b595d74fef34f7166b8c3c7f2*%
M02*
